<?xml version="1.0" encoding="UTF-8"?>
<svg width="29px" height="29px" viewBox="0 0 29 29" version="1.1" xmlns="http://www.w3.org/2000/svg" xmlns:xlink="http://www.w3.org/1999/xlink">
    <!-- Generator: Sketch 47.1 (45422) - http://www.bohemiancoding.com/sketch -->
    <title>icons/loupe</title>
    <desc>Created with Sketch.</desc>
    <defs></defs>
    <g id="Symbols" stroke="none" stroke-width="1" fill="none" fill-rule="evenodd">
        <g id="icons/loupe" fill-rule="nonzero" fill="#979797">
            <path d="M11.2989899,19.1926566 C6.21054866,18.4648121 2.29898987,14.0886977 2.29898987,8.79898987 C2.29898987,3 7,-1.70101013 12.7989899,-1.70101013 C18.5979797,-1.70101013 23.2989899,3 23.2989899,8.79898987 C23.2989899,14.0886977 19.3874311,18.4648121 14.2989899,19.1926566 L14.2989899,31.7544018 C14.2989899,32.6074542 13.627417,33.2989899 12.7989899,33.2989899 C11.9705627,33.2989899 11.2989899,32.6074542 11.2989899,31.7544018 L11.2989899,19.1926566 Z M12.7989899,16.2989899 C16.9411255,16.2989899 20.2989899,12.9411255 20.2989899,8.79898987 C20.2989899,4.65685425 16.9411255,1.29898987 12.7989899,1.29898987 C8.65685425,1.29898987 5.29898987,4.65685425 5.29898987,8.79898987 C5.29898987,12.9411255 8.65685425,16.2989899 12.7989899,16.2989899 Z" id="Combined-Shape" transform="translate(12.798990, 15.798990) rotate(45.000000) translate(-12.798990, -15.798990) "></path>
        </g>
    </g>
</svg>