<?xml version="1.0" encoding="UTF-8"?>
<svg width="22px" height="29px" viewBox="0 0 22 29" version="1.1" xmlns="http://www.w3.org/2000/svg" xmlns:xlink="http://www.w3.org/1999/xlink">
    <!-- Generator: Sketch 47.1 (45422) - http://www.bohemiancoding.com/sketch -->
    <title>login</title>
    <desc>Created with Sketch.</desc>
    <defs></defs>
    <g id="Symbols" stroke="none" stroke-width="1" fill="none" fill-rule="evenodd">
        <g id="login" fill="#FFFFFF">
            <g id="noun_1160906_cc">
                <path d="M13.0467983,20.6341444 L13.0467983,17.0650658 C13.0467983,16.2467276 12.383404,15.5833333 11.5650658,15.5833333 C10.7467276,15.5833333 10.0833333,16.2467276 10.0833333,17.0650658 L10.0833333,20.6341444 C10.0833333,21.4524827 10.7467276,22.1158769 11.5650658,22.1158769 C12.383404,22.1158769 13.0467983,21.4524827 13.0467983,20.6341444 Z" id="Shape" fill-rule="nonzero"></path>
                <path d="M8.63661824,11.0926392 L8.63661824,7.35731184 C8.63661824,5.54178329 9.95755907,4.09680671 11.5023608,4.09680671 C13.0097843,4.09680671 14.3679779,5.500607 14.3679779,6.96915647 L14.3679779,11.0926392 L17.5062478,11.0926392 L17.5062478,6.96915647 C17.5062478,3.75706456 14.7567149,0.915205286 11.5023608,0.915205286 C8.16878905,0.915205286 5.4983483,3.83639923 5.4983483,7.35731184 L5.4983483,11.0926392 L8.63661824,11.0926392 Z" id="Shape" fill-rule="nonzero"></path>
                <path d="M21.9848949,21.0437446 C21.9848949,24.6952761 19.0444062,27.6763655 15.4426063,27.6763655 L7.18707339,27.6763655 C3.58517358,27.6763655 0.644659272,24.6953021 0.644659272,21.0437446 L0.644659272,16.4052243 C0.644659272,12.7535655 3.58514799,9.77247619 7.18707339,9.77247619 L15.4426063,9.77247619 C19.0444318,9.77247619 21.9848949,12.7535915 21.9848949,16.4052243 L21.9848949,21.0437446 Z M18.8466249,21.0437446 L18.8466249,16.4052243 C18.8466249,14.510729 17.3112009,12.9540776 15.4426063,12.9540776 L7.18707339,12.9540776 C5.31836662,12.9540776 3.78292921,14.5107155 3.78292921,16.4052243 L3.78292921,21.0437446 C3.78292921,22.9381398 5.31837998,24.4947641 7.18707339,24.4947641 L15.4426063,24.4947641 C17.3111875,24.4947641 18.8466249,22.9381262 18.8466249,21.0437446 Z" id="Combined-Shape"></path>
            </g>
        </g>
    </g>
</svg>