<?xml version="1.0" encoding="UTF-8"?>
<svg width="30px" height="30px" viewBox="0 0 30 30" version="1.1" xmlns="http://www.w3.org/2000/svg" xmlns:xlink="http://www.w3.org/1999/xlink">
    <!-- Generator: Sketch 47.1 (45422) - http://www.bohemiancoding.com/sketch -->
    <title>icons/suppr</title>
    <desc>Created with Sketch.</desc>
    <defs></defs>
    <g id="Symbols" stroke="none" stroke-width="1" fill="none" fill-rule="evenodd">
        <g id="icons/suppr" fill-rule="nonzero" fill="#FFFFFF">
            <path d="M13.7105615,14 L3.5,14 C2.67157288,14 2,14.6715729 2,15.5 C2,16.3284271 2.67157288,17 3.5,17 L13.7105615,17 L13.7105615,27.2105615 C13.7105615,28.0389886 14.3821343,28.7105615 15.2105615,28.7105615 C16.0389886,28.7105615 16.7105615,28.0389886 16.7105615,27.2105615 L16.7105615,17 L26.9211229,17 C27.7495501,17 28.4211229,16.3284271 28.4211229,15.5 C28.4211229,14.6715729 27.7495501,14 26.9211229,14 L16.7105615,14 L16.7105615,3.78943853 C16.7105615,2.9610114 16.0389886,2.28943853 15.2105615,2.28943853 C14.3821343,2.28943853 13.7105615,2.9610114 13.7105615,3.78943853 L13.7105615,14 Z" id="Combined-Shape" transform="translate(15.210561, 15.500000) rotate(-315.000000) translate(-15.210561, -15.500000) "></path>
        </g>
    </g>
</svg>